<svg width="505" height="231" viewBox="0 0 505 231" fill="none" xmlns="http://www.w3.org/2000/svg">
<path d="M73.9961 52.5815C128.025 6.79588 195.642 -2.79087 289.455 0.629367C301.549 1.07031 318.015 7.20835 334.512 15.7456C351.526 24.5505 370.327 36.8328 387.5 51.3003C390.099 53.4896 392.997 54.9316 395.937 55.5542L470.807 71.4116C490.449 75.572 504.5 92.9118 504.5 112.99V151.121C504.5 174.593 485.472 193.621 462 193.621H404.876C399.296 214.846 379.977 230.501 357 230.501C334.023 230.501 314.704 214.846 309.124 193.621H170.876C165.296 214.846 145.977 230.501 123 230.501C100.023 230.501 80.7037 214.846 75.124 193.621H42.5C19.028 193.621 9.84554e-05 174.593 0 151.121V110.022C0.000371555 91.921 11.4659 75.8061 28.5664 69.8716L67.6582 56.3051C69.8113 55.5579 71.9564 54.31 73.9961 52.5815ZM123 153.501C107.812 153.501 95.5001 165.814 95.5 181.001C95.5 196.189 107.812 208.501 123 208.501C138.188 208.501 150.5 196.189 150.5 181.001C150.5 165.814 138.188 153.501 123 153.501ZM357 153.501C341.812 153.501 329.5 165.814 329.5 181.001C329.5 196.189 341.812 208.501 357 208.501C372.188 208.501 384.5 196.189 384.5 181.001C384.5 165.814 372.188 153.501 357 153.501ZM288.545 25.6128C196.057 22.2408 136.688 32.2239 90.1592 71.6538C86.0775 75.1127 81.2826 78.0398 75.8555 79.9233L36.7627 93.4897C29.7215 95.9333 25.0004 102.569 25 110.022V151.121C25.0001 160.785 32.8351 168.621 42.5 168.621H75.0615C80.5587 147.274 99.9372 131.501 123 131.501C146.063 131.501 165.441 147.274 170.938 168.621H309.062C314.559 147.274 333.937 131.501 357 131.501C380.063 131.501 399.441 147.274 404.938 168.621H462C471.665 168.621 479.5 160.786 479.5 151.121V112.99C479.5 104.722 473.714 97.5827 465.626 95.8696L390.756 80.0112C383.414 78.4561 376.831 75.001 371.393 70.4194C355.667 57.171 338.419 45.9168 323.021 37.9487C307.107 29.7131 294.798 25.8409 288.545 25.6128Z" fill="#2D5CF3"/>
</svg>